HIERARCHY
ROOT Hips
{
	OFFSET	0.00	0.00	0.00
	CHANNELS 6 Xposition Yposition Zposition Zrotation Xrotation Yrotation
	JOINT Spine
	{
		OFFSET	 0.00	0.01	 0.00
		CHANNELS 3 Zrotation Xrotation Yrotation
		JOINT Spine1
		{
			OFFSET	 0.00	 2.45913012437421	 0.00
			CHANNELS 3 Zrotation Xrotation Yrotation
            JOINT Neck
            {
                OFFSET	 0.00	 2.48462964506057	 0.00
                CHANNELS 3 Zrotation Xrotation Yrotation
                JOINT Head
                {
                    OFFSET	 0.00	 0.927524780924562	 0.00
                    CHANNELS 3 Zrotation Xrotation Yrotation
                    End Site 
                    {
                        OFFSET	 0.00	 1.14999962169752	 0.00
                    }
                }
            }
			JOINT LeftShoulder
			{
				OFFSET	 0.00	 2.48462964506057	 0.00
				CHANNELS 3 Zrotation Xrotation Yrotation
				JOINT LeftUpArm
				{
					OFFSET	 0.00	 1.24881979654096	 0.00
					CHANNELS 3 Zrotation Xrotation Yrotation
					JOINT LeftForeArm
					{
						OFFSET	 0.00	2.59758046908119	 0.00
						CHANNELS 3 Zrotation Xrotation Yrotation
						JOINT LeftHand
						{
							OFFSET	 0.00	2.45542024364365	 0.00
							CHANNELS 3 Zrotation Xrotation Yrotation
							JOINT LeftHandThumb 
							{
								OFFSET	 0.00	0.00	 0.00
								CHANNELS 3 Zrotation Xrotation Yrotation
								End Site
								{
									OFFSET	 0.00	0.00	1.00000003353624
								}
							}
							JOINT L_Wrist_End 
							{
								OFFSET	 0.00	0.99999967115358	 0.00
								CHANNELS 3 Zrotation Xrotation Yrotation
								End Site 
								{
									OFFSET	 0.00	 0.00	 0.00
								}
							}
						}
					}
				}
			}
			JOINT RightShoulder
			{
				OFFSET	 0.00	 2.48462964506057	 0.00
				CHANNELS 3 Zrotation Xrotation Yrotation
				JOINT RightUpArm
				{
					OFFSET	 0.00	 1.24881979654096	 0.00
					CHANNELS 3 Zrotation Xrotation Yrotation
					JOINT RightForeArm
					{
						OFFSET	 0.00	2.59758046908119	 0.00
						CHANNELS 3 Zrotation Xrotation Yrotation
						JOINT RightHand
						{
							OFFSET	 0.00	2.45542024364365	 0.00
							CHANNELS 3 Zrotation Xrotation Yrotation
							JOINT RightHandThumb 
							{
								OFFSET	 0.00	0.00	 0.00
								CHANNELS 3 Zrotation Xrotation Yrotation
								End Site
								{
									OFFSET	 0.00	0.00	1.00000003353624
								}
							}
							JOINT R_Wrist_End 
							{
								OFFSET	 0.00	0.99999967115358	 0.00
								CHANNELS 3 Zrotation Xrotation Yrotation
								End Site 
								{
									OFFSET	 0.00	 0.00	 0.00
								}
							}
						}
					}
				}
			}
		}
	}
	JOINT LeftUpLeg
	{
		OFFSET	 1.2719394002717	 0.00	 0.00
		CHANNELS 3 Zrotation Xrotation Yrotation
		JOINT LeftLowLeg
		{
			OFFSET	 0.00	-4.3429100912261	 0.00
			CHANNELS 3 Zrotation Xrotation Yrotation
			JOINT LeftFoot
			{
				OFFSET	 0.00	-4.48767017425826	 0.00
				CHANNELS 3 Zrotation Xrotation Yrotation
				JOINT LeftToeBase
                {
                    OFFSET	 0.00	0.00	 1.51507020887566
                    CHANNELS 3 Zrotation Xrotation Yrotation
                    End Site 
                    {
                        OFFSET	 0.00	0.00	 0.75000010571191
                    }
                }
			}
		}
	}
	JOINT RightUpLeg
	{
		OFFSET	 -1.2719393604653	 0.00	 0.00
		CHANNELS 3 Zrotation Xrotation Yrotation
		JOINT RightLowLeg
		{
			OFFSET	 0.00	-4.3429100912261	 0.00
			CHANNELS 3 Zrotation Xrotation Yrotation
			JOINT RightFoot
			{
				OFFSET	 0.00	-4.48767017425826	 0.00
				CHANNELS 3 Zrotation Xrotation Yrotation
				JOINT RightToeBase
                {
                    OFFSET	 0.00	0.00	 1.51507020887566
                    CHANNELS 3 Zrotation Xrotation Yrotation
                    End Site 
                    {
                        OFFSET	 0.00	0.00	 0.749999965609858
                    }
                }   
			}
		}
	}
}
MOTION 
Frames:	17 
Frame Time: 0.02 
 3.2366598510742186 11.244100341796875 9.827940063476563 -141.438 83.8465 142.983 2.37417 -5.80651 -2.52317 0.571897 4.08102 -2.73038 -5.92376 26.1494 4.58606 18.8267 -52.5593 12.6829 -91.12249 -15.854 -4.97952 -6.77832 2.56004 -32.8977 0.0 21.0463 0.0 32.137 -8.31821 24.8574 0.0 0.0 0.0 0.0 0.0 0.0 99.13961 -10.7198 0.90227 6.51798 1.99554 32.7069 0.0 23.4896 0.0 -19.7349 -1.70589 -27.4223 0.0 0.0 0.0 0.0 0.0 0.0 4.70829 -3.36178 1.57078 0.0 8.09257 0.0 -7.99046 4.8267 4.04846 0.0 -37.4557 0.0 2.45024 -2.32075 4.73029 0.0 7.14721 0.0 10.1246 9.93898 -6.7564 0.0 -28.1696 0.0 
  3.236319885253906 11.244300537109375 9.827789916992188 -141.291 83.8659 142.859 2.3258 -5.81507 -2.57094 0.665929 4.1064 -2.76988 -6.04886 26.1579 4.71907 18.9208 -52.5477 12.5906 -91.17886 -15.9041 -4.99558 -6.80272 2.58214 -32.8302 0.0 20.9475 0.0 32.099 -8.3008 24.7539 0.0 0.0 0.0 0.0 0.0 0.0 99.07038 -10.6353 0.920678 6.5644 1.96195 32.7495 0.0 23.536 0.0 -19.7472 -1.7469 -27.3982 0.0 0.0 0.0 0.0 0.0 0.0 4.71092 -3.36247 1.55104 0.0 8.12965 0.0 -7.97406 4.8097 4.03165 0.0 -37.3755 0.0 2.45342 -2.30716 4.731 0.0 7.17352 0.0 10.1281 9.91507 -6.77162 0.0 -28.1611 0.0 
  3.2362600708007814 11.2443994140625 9.827760009765624 -141.264 83.8731 142.851 2.324 -5.81183 -2.57534 0.66408 4.09762 -2.77398 -6.02351 26.1719 4.68279 18.9173 -52.5535 12.5872 -91.17723 -15.9108 -4.99065 -6.81542 2.6125 -32.7821 0.0 20.924 0.0 32.0899 -8.35572 24.8547 0.0 0.0 0.0 0.0 0.0 0.0 99.07118 -10.6469 0.905968 6.56195 1.96863 32.7663 0.0 23.5256 0.0 -19.7435 -1.73779 -27.4185 0.0 0.0 0.0 0.0 0.0 0.0 4.70825 -3.36677 1.53882 0.0 8.14272 0.0 -7.96351 4.8100004 4.02823 0.0 -37.396698 0.0 2.45349 -2.30494 4.75061 0.0 7.18931 0.0 10.1384 9.89725 -6.80359 0.0 -28.1515 0.0 
  3.23635986328125 11.24510009765625 9.827639770507812 -141.213 83.8859 142.832 2.32756 -5.80732 -2.5838 0.658878 4.09379 -2.78314 -6.0015 26.1796 4.65121 18.9145 -52.5537 12.5759 -91.19396 -15.9133 -4.99915 -6.83144 2.63063 -32.6793 0.0 20.8835 0.0 32.1097 -8.40787 24.8266 0.0 0.0 0.0 0.0 0.0 0.0 99.06046 -10.6437 0.916684 6.56393 1.96181 32.7338 0.0 23.5136 0.0 -19.7451 -1.78124 -27.4484 0.0 0.0 0.0 0.0 0.0 0.0 4.70255 -3.38223 1.51949 0.0 8.17657 0.0 -7.95016 4.8063 4.02153 0.0 -37.4205 0.0 2.45113 -2.31182 4.75207 0.0 7.23025 0.0 10.1441 9.86969 -6.82484 0.0 -28.17 0.0 
  3.2366400146484375 11.2456005859375 9.827589721679688 -141.137 83.8958 142.768 2.33817 -5.7946 -2.58137 0.646963 4.08567 -2.78253 -5.97865 26.182 4.62301 18.9127 -52.5522 12.5704 -91.20684 -15.9181 -4.97434 -6.83331 2.65125 -32.7196 0.0 20.8902 0.0 32.1234 -8.39029 24.8268 0.0 0.0 0.0 0.0 0.0 0.0 99.06249 -10.6387 0.902884 6.56043 1.95065 32.7515 0.0 23.5026 0.0 -19.7578 -1.76514 -27.4611 0.0 0.0 0.0 0.0 0.0 0.0 4.7021 -3.38653 1.52503 0.0 8.19927 0.0 -7.95076 4.8014 4.00286 0.0 -37.4168 0.0 2.44932 -2.31003 4.73745 0.0 7.25029 0.0 10.1568 9.860041 -6.8188 0.0 -28.17 0.0 
  3.2368099975585936 11.246199951171874 9.827570190429688 -141.035 83.9094 142.676 2.35085 -5.77526 -2.57689 0.630841 4.08352 -2.78031 -5.95858 26.1701 4.60483 18.914 -52.5461 12.568 -91.20929 -15.9044 -4.98204 -6.84984 2.62534 -32.7108 0.0 20.9386 0.0 32.1215 -8.40068 24.651 0.0 0.0 0.0 0.0 0.0 0.0 99.06391 -10.6274 0.898255 6.57588 1.92815 32.7878 0.0 23.5168 0.0 -19.8095 -1.76826 -27.502 0.0 0.0 0.0 0.0 0.0 0.0 4.70235 -3.38576 1.49837 0.0 8.2217 0.0 -7.95869 4.7932997 4.00469 0.0 -37.412598 0.0 2.44777 -2.30524 4.73608 0.0 7.26797 0.0 10.1584 9.8585205 -6.81759 0.0 -28.1745 0.0 
  3.237510070800781 11.2477001953125 9.827509765625 -140.773 83.9507 142.422 2.42611 -5.70145 -2.5221 0.501111 4.04707 -2.73864 -5.8146 26.1798 4.44944 18.9265 -52.5555 12.5946 -91.17096 -15.8161 -4.95402 -6.84446 2.58304 -32.71 0.0 21.0051 0.0 32.0987 -8.42298 24.7578 0.0 0.0 0.0 0.0 0.0 0.0 99.14031 -10.6971 0.869937 6.56512 1.92068 32.838 0.0 23.5413 0.0 -19.8077 -1.74626 -27.4764 0.0 0.0 0.0 0.0 0.0 0.0 4.69328 -3.36353 1.46646 0.0 8.25301 0.0 -7.95169 4.7859 4.02239 0.0 -37.4017 0.0 2.43935 -2.27842 4.72499 0.0 7.29522 0.0 10.1745 9.84999 -6.80335 0.0 -28.185299 0.0 
  3.238039855957031 11.248599853515625 9.8275 -140.668 83.9669 142.321 2.44008 -5.67573 -2.51592 0.490372 4.04952 -2.73489 -5.78938 26.1541 4.41897 18.9135 -52.5582 12.5882 -91.18527 -15.8285 -4.93598 -6.82858 2.60894 -32.7041 0.0 20.9951 0.0 32.0818 -8.43645 24.7392 0.0 0.0 0.0 0.0 0.0 0.0 99.15239 -10.6808 0.891143 6.55106 1.89312 32.8336 0.0 23.5467 0.0 -19.7439 -1.72073 -27.4588 0.0 0.0 0.0 0.0 0.0 0.0 4.68812 -3.3451 1.4454 0.0 8.24391 0.0 -7.95775 4.7909 4.03409 0.0 -37.3988 0.0 2.43501 -2.26945 4.72348 0.0 7.30841 0.0 10.1797 9.84538 -6.80339 0.0 -28.182201 0.0 
  3.2390399169921875 11.250400390625 9.827630004882813 -140.593 83.972 142.26 2.40086 -5.668 -2.54933 0.611004 4.09288 -2.76144 -5.81664 26.1017 4.4214 18.8109 -52.5771 12.5775 -91.24112 -15.8783 -4.96238 -6.86399 2.6 -32.6867 0.0 20.9789 0.0 32.0284 -8.43436 24.7519 0.0 0.0 0.0 0.0 0.0 0.0 99.10351 -10.6208 0.912547 6.52326 1.90907 32.8442 0.0 23.5457 0.0 -19.7331 -1.79524 -27.4227 0.0 0.0 0.0 0.0 0.0 0.0 4.68447 -3.34817 1.43577 0.0 8.24123 0.0 -7.97999 4.8037004 4.0412 0.0 -37.5036 0.0 2.43306 -2.27399 4.71207 0.0 7.31446 0.0 10.1713 9.85343 -6.81297 0.0 -28.179 0.0 
  3.239960021972656 11.251800537109375 9.827680053710937 -140.589 83.9598 142.268 2.48469 -5.64531 -2.49494 0.491946 4.05636 -2.72101 -5.69921 26.1095 4.30313 18.8138 -52.5798 12.6198 -91.18028 -15.8029 -4.92431 -6.88247 2.60973 -32.7999 0.0 20.9284 0.0 31.9792 -8.23238 24.7334 0.0 0.0 0.0 0.0 0.0 0.0 99.17453 -10.7001 0.879991 6.50543 1.92267 32.8762 0.0 23.5478 0.0 -19.7839 -1.81744 -27.4464 0.0 0.0 0.0 0.0 0.0 0.0 4.68858 -3.36638 1.45158 0.0 8.23598 0.0 -7.96372 4.8097 4.01434 0.0 -37.4936 0.0 2.43434 -2.29521 4.68566 0.0 7.3228 0.0 10.1699 9.863689 -6.80211 0.0 -28.1902 0.0 
  3.2407000732421873 11.253399658203126 9.82791015625 -140.591 83.9472 142.284 2.49899 -5.6428 -2.49229 0.514524 4.06188 -2.7204 -5.6787 26.1138 4.26845 18.7758 -52.5939 12.6334 -91.19002 -15.7756 -4.92436 -6.93023 2.57543 -32.803 0.0 20.9892 0.0 32.0668 -8.32282 24.7361 0.0 0.0 0.0 0.0 0.0 0.0 99.16817 -10.687 0.873873 6.50861 1.91775 32.9069 0.0 23.5961 0.0 -19.8026 -1.88683 -27.453 0.0 0.0 0.0 0.0 0.0 0.0 4.69337 -3.3954 1.48284 0.0 8.24733 0.0 -7.95976 4.8163996 3.97608 0.0 -37.4865 0.0 2.43666 -2.32263 4.67387 0.0 7.33734 0.0 10.1759 9.87661 -6.80256 0.0 -28.1868 0.0 
  3.2411898803710937 11.25489990234375 9.82802978515625 -140.589 83.9493 142.297 2.50561 -5.62761 -2.48949 0.519781 4.0759 -2.71874 -5.6449 26.0963 4.25197 18.7748 -52.5717 12.6562 -91.17843 -15.7673 -4.90697 -6.97296 2.56836 -32.8018 0.0 21.0182 0.0 32.0982 -8.3512 24.8304 0.0 0.0 0.0 0.0 0.0 0.0 99.168396 -10.7037 0.879647 6.53862 1.94146 32.8836 0.0 23.6399 0.0 -19.9207 -1.89511 -27.4681 0.0 0.0 0.0 0.0 0.0 0.0 4.69161 -3.4146 1.5316 0.0 8.26081 0.0 -7.95248 4.8357 3.92252 0.0 -37.527298 0.0 2.43221 -2.33756 4.66269 0.0 7.354 0.0 10.1738 9.87822 -6.80456 0.0 -28.186401 0.0 
  3.2415899658203124 11.256700439453125 9.82822998046875 -140.525 83.9552 142.242 2.51001 -5.59854 -2.48798 0.53586 4.08716 -2.71801 -5.65732 26.0807 4.29299 18.8151 -52.5433 12.6591 -91.18739 -15.7583 -4.92377 -6.98263 2.55437 -32.734 0.0 21.0086 0.0 32.0778 -8.36364 24.8602 0.0 0.0 0.0 0.0 0.0 0.0 99.16802 -10.6999 0.887984 6.56147 1.9427 32.8677 0.0 23.6819 0.0 -19.8893 -1.8635 -27.3624 0.0 0.0 0.0 0.0 0.0 0.0 4.69117 -3.42175 1.57454 0.0 8.26597 0.0 -7.9287 4.8498 3.89172 0.0 -37.5388 0.0 2.43049 -2.32954 4.62514 0.0 7.33687 0.0 10.1642 9.895491 -6.78732 0.0 -28.1918 0.0 
  3.241669921875 11.258599853515625 9.828300170898437 -140.411 83.9666 142.134 2.50373 -5.56244 -2.48561 0.569323 4.09854 -2.71455 -5.65545 26.0922 4.30113 18.8462 -52.5295 12.655 -91.19537 -15.7203 -4.90799 -7.00515 2.5134 -32.7478 0.0 21.0001 0.0 32.0127 -8.35197 24.8518 0.0 0.0 0.0 0.0 0.0 0.0 99.19864 -10.7009 0.892926 6.50742 1.95671 32.8231 0.0 23.6544 0.0 -19.7967 -1.787 -27.1816 0.0 0.0 0.0 0.0 0.0 0.0 4.69276 -3.42725 1.57316 0.0 8.28305 0.0 -7.92524 4.8471003 3.88923 0.0 -37.5334 0.0 2.43215 -2.32123 4.60935 0.0 7.33134 0.0 10.145 9.905809 -6.78821 0.0 -28.1902 0.0 
  3.2415499877929688 11.26 9.828309936523437 -140.341 83.9718 142.062 2.429 -5.57136 -2.53344 0.723697 4.18157 -2.75019 -5.72534 26.0532 4.37507 18.8184 -52.5282 12.6397 -91.27204 -15.7989 -4.93618 -7.03157 2.51964 -32.7579 0.0 20.9972 0.0 31.9955 -8.35776 24.8206 0.0 0.0 0.0 0.0 0.0 0.0 99.144 -10.5874 0.933661 6.4994 1.92164 32.7812 0.0 23.6634 0.0 -19.8208 -1.78545 -27.3546 0.0 0.0 0.0 0.0 0.0 0.0 4.69607 -3.43776 1.56172 0.0 8.30667 0.0 -7.92709 4.8387003 3.89673 0.0 -37.5355 0.0 2.43527 -2.32343 4.59811 0.0 7.33469 0.0 10.1318 9.913441 -6.78055 0.0 -28.195599 0.0 
  3.2414199829101564 11.261400146484375 9.828250122070312 -140.206 83.9773 141.913 2.48852 -5.52461 -2.47181 0.630019 4.15718 -2.69835 -5.60242 26.1081 4.24858 18.8572 -52.5382 12.6844 -91.21622 -15.7082 -4.89946 -7.04604 2.51788 -32.7651 0.0 20.9848 0.0 31.9955 -8.32206 24.822 0.0 0.0 0.0 0.0 0.0 0.0 99.22719 -10.6698 0.886368 6.4678 1.93019 32.8171 0.0 23.6609 0.0 -19.7867 -1.75694 -27.3614 0.0 0.0 0.0 0.0 0.0 0.0 4.70547 -3.44706 1.56013 0.0 8.33976 0.0 -7.93632 4.8215 3.90281 0.0 -37.543602 0.0 2.443 -2.32795 4.57504 0.0 7.34511 0.0 10.1282 9.929911 -6.74903 0.0 -28.2086 0.0 
  3.241510009765625 11.263299560546875 9.828369750976563 -140.092 83.9758 141.777 2.50658 -5.51145 -2.44778 0.630341 4.22704 -2.67758 -5.5484 26.0889 4.1988 18.8519 -52.5386 12.7081 -91.24463 -15.6988 -4.91213 -7.03071 2.53264 -32.6994 0.0 20.9628 0.0 31.9929 -8.30814 24.8438 0.0 0.0 0.0 0.0 0.0 0.0 99.26899 -10.671 0.870939 6.43865 1.92316 32.8178 0.0 23.6673 0.0 -19.77 -1.67356 -27.3918 0.0 0.0 0.0 0.0 0.0 0.0 4.71457 -3.46818 1.52573 0.0 8.38068 0.0 -7.93139 4.8061 3.9508 0.0 -37.5374 0.0 2.45537 -2.34248 4.61201 0.0 7.35735 0.0 10.1233 9.943029 -6.76922 0.0 -28.196499 0.0 
